<svg width="27" height="30" viewBox="0 0 27 30" fill="none" xmlns="http://www.w3.org/2000/svg">
<path d="M22.8387 6H1.16129C0.853297 6 0.557918 6.12235 0.340134 6.34013C0.12235 6.55792 0 6.8533 0 7.16129V21.871C0 22.179 0.12235 22.4743 0.340134 22.6921C0.557918 22.9099 0.853297 23.0323 1.16129 23.0323H9.29032V26.9032C9.29034 26.9798 9.31305 27.0546 9.35559 27.1182C9.39812 27.1819 9.45857 27.2315 9.52929 27.2608C9.60002 27.2901 9.67784 27.2977 9.75292 27.2828C9.82799 27.2679 9.89696 27.231 9.9511 27.1769L10.8387 26.2893V29.6129C10.8387 29.6895 10.8614 29.7643 10.904 29.8279C10.9465 29.8916 11.007 29.9412 11.0777 29.9705C11.1484 29.9997 11.2262 30.0074 11.3013 29.9925C11.3764 29.9776 11.4453 29.9407 11.4995 29.8866L12.7742 28.6119L14.0489 29.8866C14.1215 29.9592 14.2199 30 14.3226 30C14.3735 30.0002 14.4239 29.9902 14.4708 29.9706C14.5416 29.9413 14.602 29.8916 14.6445 29.828C14.687 29.7643 14.7097 29.6895 14.7097 29.6129V23.0323H22.8387C23.1467 23.0323 23.4421 22.9099 23.6599 22.6921C23.8776 22.4743 24 22.179 24 21.871V7.16129C24 6.8533 23.8776 6.55792 23.6599 6.34013C23.4421 6.12235 23.1467 6 22.8387 6ZM11.2351 22.7412C10.984 22.5058 10.6579 22.3667 10.3142 22.3483C10.0216 22.3391 9.74352 22.2188 9.53653 22.0119C9.32955 21.8049 9.20924 21.5268 9.20013 21.2342C9.18169 20.8905 9.04255 20.5644 8.80723 20.3133C8.61971 20.1026 8.51611 19.8304 8.51611 19.5484C8.51611 19.2664 8.61971 18.9941 8.80723 18.7835C9.04263 18.5323 9.18178 18.206 9.20013 17.8622C9.20934 17.5697 9.32969 17.2917 9.53666 17.0848C9.74363 16.8779 10.0217 16.7576 10.3142 16.7485C10.6579 16.7301 10.984 16.5909 11.2351 16.3556C11.4484 16.1737 11.7196 16.0737 12 16.0737C12.2804 16.0737 12.5516 16.1737 12.7649 16.3556C13.016 16.5909 13.3421 16.7301 13.6858 16.7485C13.9783 16.7576 14.2564 16.8779 14.4633 17.0848C14.6703 17.2917 14.7907 17.5697 14.7999 17.8622C14.8182 18.206 14.9574 18.5323 15.1928 18.7835C15.3803 18.9941 15.4839 19.2664 15.4839 19.5484C15.4839 19.8304 15.3803 20.1026 15.1928 20.3133C14.9575 20.5644 14.8183 20.8905 14.7999 21.2342C14.7908 21.5268 14.6705 21.8049 14.4635 22.0119C14.2565 22.2188 13.9784 22.3391 13.6858 22.3483C13.3421 22.3667 13.016 22.5058 12.7649 22.7412C12.5516 22.9231 12.2804 23.0231 12 23.0231C11.7196 23.0231 11.4484 22.9231 11.2351 22.7412ZM15.7719 18.271C15.6582 18.1535 15.5881 18.0006 15.5733 17.8378C15.5577 17.3491 15.3565 16.8846 15.0108 16.5389C14.665 16.1932 14.2005 15.9921 13.7117 15.9766C13.549 15.9618 13.3963 15.8917 13.279 15.7781C12.922 15.4745 12.4686 15.3078 12 15.3078C11.5314 15.3078 11.078 15.4745 10.721 15.7781C10.6037 15.8917 10.451 15.9618 10.2883 15.9766C9.79953 15.9921 9.33504 16.1932 8.98925 16.5389C8.64345 16.8846 8.44231 17.3491 8.42671 17.8378C8.41187 18.0006 8.3418 18.1535 8.22813 18.271C7.93102 18.6033 7.75966 19.0292 7.74382 19.4746C7.72798 19.9201 7.86866 20.3571 8.14142 20.7097H3.83226C3.75579 20.338 3.57203 19.9969 3.3037 19.7286C3.03538 19.4602 2.69427 19.2765 2.32258 19.2V9.83226C2.69427 9.75579 3.03538 9.57203 3.3037 9.3037C3.57203 9.03538 3.75579 8.69427 3.83226 8.32258H20.1677C20.2442 8.69427 20.428 9.03538 20.6963 9.3037C20.9646 9.57203 21.3057 9.75579 21.6774 9.83226V19.2C21.3057 19.2765 20.9646 19.4602 20.6963 19.7286C20.428 19.9969 20.2442 20.338 20.1677 20.7097H15.8586C16.1313 20.3571 16.272 19.9201 16.2562 19.4746C16.2403 19.0292 16.069 18.6033 15.7719 18.271ZM10.0645 23.0934C10.1385 23.1073 10.2132 23.1167 10.2883 23.1217C10.451 23.1365 10.6037 23.2066 10.721 23.3203C11.0734 23.6334 11.5285 23.8064 12 23.8065C12.1301 23.8055 12.2599 23.7913 12.3871 23.7639V25.9703L11.4995 25.0827C11.4269 25.0101 11.3285 24.9694 11.2258 24.9694C11.1232 24.9694 11.0247 25.0101 10.9521 25.0827L10.0645 25.9688V23.0934ZM13.0479 27.7908C12.9753 27.7183 12.8768 27.6775 12.7742 27.6775C12.6715 27.6775 12.5731 27.7183 12.5005 27.7908L11.6129 28.6784V26.2893L12.5005 27.1769C12.5731 27.2495 12.6715 27.2903 12.7742 27.2903C12.8251 27.2905 12.8755 27.2805 12.9225 27.2609C12.9932 27.2316 13.0536 27.182 13.0961 27.1183C13.1386 27.0546 13.1613 26.9798 13.1613 26.9032V23.4194H13.1443C13.1892 23.3861 13.2368 23.3574 13.279 23.3203C13.3963 23.2066 13.549 23.1365 13.7117 23.1217C13.7868 23.1167 13.8615 23.1073 13.9355 23.0934V28.6784L13.0479 27.7908ZM23.2258 21.871C23.2258 21.9736 23.185 22.0721 23.1124 22.1447C23.0398 22.2173 22.9414 22.2581 22.8387 22.2581H15.2543C15.4065 22.0243 15.5058 21.7601 15.545 21.4839H20.5161C20.6188 21.4839 20.7173 21.4431 20.7898 21.3705C20.8624 21.2979 20.9032 21.1994 20.9032 21.0968C20.9032 20.7888 21.0256 20.4934 21.2434 20.2756C21.4611 20.0578 21.7565 19.9355 22.0645 19.9355C22.1672 19.9355 22.2656 19.8947 22.3382 19.8221C22.4108 19.7495 22.4516 19.6511 22.4516 19.5484V9.48387C22.4516 9.38121 22.4108 9.28275 22.3382 9.21015C22.2656 9.13756 22.1672 9.09677 22.0645 9.09677C21.7565 9.09677 21.4611 8.97442 21.2434 8.75664C21.0256 8.53886 20.9032 8.24348 20.9032 7.93548C20.9032 7.83282 20.8624 7.73436 20.7898 7.66177C20.7173 7.58917 20.6188 7.54839 20.5161 7.54839H3.48387C3.38121 7.54839 3.28275 7.58917 3.21015 7.66177C3.13756 7.73436 3.09677 7.83282 3.09677 7.93548C3.09677 8.24348 2.97442 8.53886 2.75664 8.75664C2.53886 8.97442 2.24348 9.09677 1.93548 9.09677C1.83282 9.09677 1.73436 9.13756 1.66177 9.21015C1.58917 9.28275 1.54839 9.38121 1.54839 9.48387V19.5484C1.54839 19.6511 1.58917 19.7495 1.66177 19.8221C1.73436 19.8947 1.83282 19.9355 1.93548 19.9355C2.24348 19.9355 2.53886 20.0578 2.75664 20.2756C2.97442 20.4934 3.09677 20.7888 3.09677 21.0968C3.09677 21.1994 3.13756 21.2979 3.21015 21.3705C3.28275 21.4431 3.38121 21.4839 3.48387 21.4839H8.45497C8.49423 21.7601 8.59345 22.0243 8.74568 22.2581H1.16129C1.05863 22.2581 0.960166 22.2173 0.887572 22.1447C0.814977 22.0721 0.774194 21.9736 0.774194 21.871V7.16129C0.774194 7.05863 0.814977 6.96017 0.887572 6.88757C0.960166 6.81498 1.05863 6.77419 1.16129 6.77419H22.8387C22.9414 6.77419 23.0398 6.81498 23.1124 6.88757C23.185 6.96017 23.2258 7.05863 23.2258 7.16129V21.871Z" fill="#333333"/>
<path d="M12 17C11.6044 17 11.2178 17.1466 10.8889 17.4213C10.56 17.696 10.3036 18.0865 10.1522 18.5433C10.0009 19.0001 9.96126 19.5028 10.0384 19.9877C10.1156 20.4727 10.3061 20.9181 10.5858 21.2678C10.8655 21.6174 11.2219 21.8555 11.6098 21.952C11.9978 22.0484 12.3999 21.9989 12.7654 21.8097C13.1308 21.6205 13.4432 21.3 13.6629 20.8889C13.8827 20.4778 14 19.9945 14 19.5C13.9995 18.8372 13.7886 18.2017 13.4136 17.733C13.0387 17.2643 12.5303 17.0007 12 17ZM12 21.1667C11.7363 21.1667 11.4785 21.0689 11.2592 20.8858C11.04 20.7026 10.8691 20.4423 10.7682 20.1378C10.6672 19.8333 10.6408 19.4982 10.6923 19.1748C10.7437 18.8515 10.8707 18.5546 11.0572 18.3215C11.2437 18.0884 11.4812 17.9297 11.7399 17.8654C11.9985 17.801 12.2666 17.8341 12.5102 17.9602C12.7539 18.0863 12.9621 18.3 13.1086 18.574C13.2551 18.8481 13.3333 19.1704 13.3333 19.5C13.3333 19.942 13.1929 20.3659 12.9428 20.6785C12.6928 20.9911 12.3536 21.1667 12 21.1667Z" fill="#333333"/>
<path d="M9 9H15V10H9V9Z" fill="#333333"/>
<path d="M5 12H19V13H5V12Z" fill="#333333"/>
<path d="M17 19H19V20H17V19Z" fill="#333333"/>
<path d="M5 19H7V20H5V19Z" fill="#333333"/>
<path d="M23.1904 2.4762V4.38095L24.8209 5.34857L25.0952 4.88572L23.7619 4.09523V2.4762H23.1904Z" fill="#333333"/>
<path d="M23.5695 0.571426C21.6743 0.571426 20.1429 2.10666 20.1429 4H19L20.4838 5.4838L20.5105 5.53903L22.0476 4H20.9048C20.9048 2.52762 22.0991 1.33334 23.5714 1.33334C25.0438 1.33334 26.2381 2.52762 26.2381 4C26.2381 5.47237 25.0438 6.66666 23.5714 6.66666C22.8343 6.66666 22.1695 6.36571 21.6876 5.8838L21.1486 6.42285C21.7676 7.0438 22.6229 7.42857 23.5695 7.42857C25.4648 7.42857 27 5.89334 27 4C27 2.10666 25.4648 0.571426 23.5695 0.571426Z" fill="#333333"/>
</svg>
