<svg width="25" height="25" viewBox="0 0 25 25" fill="none" xmlns="http://www.w3.org/2000/svg">
<path d="M0.78125 23.8281H2.34375V21.0552C1.23682 20.8374 0.390625 19.7119 0.390625 18.3594C0.390625 16.8516 1.44189 15.625 2.73438 15.625C4.02686 15.625 5.07812 16.8516 5.07812 18.3594C5.07812 19.7119 4.23193 20.8374 3.125 21.0552V22.3169L3.68945 21.9404C3.7757 21.8829 3.88126 21.8621 3.9829 21.8824C4.08454 21.9027 4.17395 21.9626 4.23145 22.0488C4.28894 22.1351 4.30982 22.2406 4.2895 22.3423C4.26917 22.4439 4.20929 22.5333 4.12305 22.5908L3.125 23.2559V23.8281H5.46875V2.34375C5.46875 2.24015 5.5099 2.14079 5.58316 2.06754C5.65642 1.99428 5.75578 1.95312 5.85938 1.95312H8.59375V0.78125C8.59375 0.67765 8.6349 0.578293 8.70816 0.505036C8.78142 0.43178 8.88077 0.390625 8.98438 0.390625H16.0156C16.1192 0.390625 16.2186 0.43178 16.2918 0.505036C16.3651 0.578293 16.4062 0.67765 16.4062 0.78125V1.95312H19.1406C19.2442 1.95312 19.3436 1.99428 19.4168 2.06754C19.4901 2.14079 19.5312 2.24015 19.5312 2.34375V23.8281H21.875V21.0552C20.7681 20.8374 19.9219 19.7119 19.9219 18.3594C19.9219 16.8516 20.9731 15.625 22.2656 15.625C23.5581 15.625 24.6094 16.8516 24.6094 18.3594C24.6094 19.7119 23.7632 20.8374 22.6562 21.0552V22.3169L23.2207 21.9404C23.2634 21.912 23.3113 21.8922 23.3617 21.8822C23.412 21.8723 23.4638 21.8723 23.5141 21.8824C23.5645 21.8924 23.6123 21.9123 23.655 21.9409C23.6976 21.9694 23.7342 22.0061 23.7627 22.0488C23.7912 22.0915 23.8109 22.1394 23.8209 22.1898C23.8309 22.2401 23.8308 22.2919 23.8207 22.3423C23.8107 22.3926 23.7908 22.4405 23.7622 22.4831C23.7337 22.5257 23.697 22.5624 23.6543 22.5908L22.6562 23.2559V23.8281H24.2188C24.3224 23.8281 24.4217 23.8693 24.495 23.9425C24.5682 24.0158 24.6094 24.1152 24.6094 24.2188C24.6094 24.3223 24.5682 24.4217 24.495 24.495C24.4217 24.5682 24.3224 24.6094 24.2188 24.6094H0.78125C0.67765 24.6094 0.578293 24.5682 0.505035 24.495C0.43178 24.4217 0.390625 24.3223 0.390625 24.2188C0.390625 24.1152 0.43178 24.0158 0.505035 23.9425C0.578293 23.8693 0.67765 23.8281 0.78125 23.8281ZM22.2656 17.9688C22.3692 17.9688 22.4686 18.0099 22.5418 18.0832C22.6151 18.1564 22.6562 18.2558 22.6562 18.3594V20.2505C23.3296 20.0332 23.8281 19.2676 23.8281 18.3594C23.8281 17.2822 23.1274 16.4062 22.2656 16.4062C21.4038 16.4062 20.7031 17.2822 20.7031 18.3594C20.7031 19.2676 21.2017 20.0332 21.875 20.2505V18.3594C21.875 18.2558 21.9162 18.1564 21.9894 18.0832C22.0627 18.0099 22.162 17.9688 22.2656 17.9688ZM15.625 1.17188H9.375V1.95312H15.625V1.17188ZM12.8906 23.8281H13.2812V20.7031H12.8906V23.8281ZM11.7188 23.8281H12.1094V20.7031H11.7188V23.8281ZM6.25 23.8281H10.9375V20.3125C10.9375 20.2089 10.9787 20.1095 11.0519 20.0363C11.1252 19.963 11.2245 19.9219 11.3281 19.9219H13.6719C13.7755 19.9219 13.8748 19.963 13.9481 20.0363C14.0213 20.1095 14.0625 20.2089 14.0625 20.3125V23.8281H18.75V5.07812H6.25V23.8281ZM6.25 4.29688H18.75V2.73438H6.25V4.29688ZM2.73438 17.9688C2.83797 17.9688 2.93733 18.0099 3.01059 18.0832C3.08385 18.1564 3.125 18.2558 3.125 18.3594V20.2505C3.79834 20.0332 4.29688 19.2676 4.29688 18.3594C4.29688 17.2822 3.59619 16.4062 2.73438 16.4062C1.87256 16.4062 1.17188 17.2822 1.17188 18.3594C1.17188 19.2676 1.67041 20.0332 2.34375 20.2505V18.3594C2.34375 18.2558 2.3849 18.1564 2.45816 18.0832C2.53142 18.0099 2.63078 17.9688 2.73438 17.9688Z" fill="#333333"/>
<path d="M11.3281 16.0156H13.6719C13.7755 16.0156 13.8748 16.0568 13.9481 16.13C14.0213 16.2033 14.0625 16.3026 14.0625 16.4062V18.75C14.0625 18.8536 14.0213 18.953 13.9481 19.0262C13.8748 19.0995 13.7755 19.1406 13.6719 19.1406H11.3281C11.2245 19.1406 11.1252 19.0995 11.0519 19.0262C10.9787 18.953 10.9375 18.8536 10.9375 18.75V16.4062C10.9375 16.3026 10.9787 16.2033 11.0519 16.13C11.1252 16.0568 11.2245 16.0156 11.3281 16.0156ZM11.7188 18.3594H13.2812V16.7969H11.7188V18.3594Z" fill="#333333"/>
<path d="M15.2344 16.0156H17.5781C17.6817 16.0156 17.7811 16.0568 17.8543 16.13C17.9276 16.2033 17.9688 16.3026 17.9688 16.4062V18.75C17.9688 18.8536 17.9276 18.953 17.8543 19.0262C17.7811 19.0995 17.6817 19.1406 17.5781 19.1406H15.2344C15.1308 19.1406 15.0314 19.0995 14.9582 19.0262C14.8849 18.953 14.8438 18.8536 14.8438 18.75V16.4062C14.8438 16.3026 14.8849 16.2033 14.9582 16.13C15.0314 16.0568 15.1308 16.0156 15.2344 16.0156ZM15.625 18.3594H17.1875V16.7969H15.625V18.3594Z" fill="#333333"/>
<path d="M7.42188 16.0156H9.76562C9.86923 16.0156 9.96858 16.0568 10.0418 16.13C10.1151 16.2033 10.1562 16.3026 10.1562 16.4062V18.75C10.1562 18.8536 10.1151 18.953 10.0418 19.0262C9.96858 19.0995 9.86923 19.1406 9.76562 19.1406H7.42188C7.31827 19.1406 7.21892 19.0995 7.14566 19.0262C7.0724 18.953 7.03125 18.8536 7.03125 18.75V16.4062C7.03125 16.3026 7.0724 16.2033 7.14566 16.13C7.21892 16.0568 7.31827 16.0156 7.42188 16.0156ZM7.8125 18.3594H9.375V16.7969H7.8125V18.3594Z" fill="#333333"/>
<path d="M15.2344 19.9219H17.5781C17.6817 19.9219 17.7811 19.963 17.8543 20.0363C17.9276 20.1095 17.9688 20.2089 17.9688 20.3125V22.6562C17.9688 22.7599 17.9276 22.8592 17.8543 22.9325C17.7811 23.0057 17.6817 23.0469 17.5781 23.0469H15.2344C15.1308 23.0469 15.0314 23.0057 14.9582 22.9325C14.8849 22.8592 14.8438 22.7599 14.8438 22.6562V20.3125C14.8438 20.2089 14.8849 20.1095 14.9582 20.0363C15.0314 19.963 15.1308 19.9219 15.2344 19.9219ZM15.625 22.2656H17.1875V20.7031H15.625V22.2656Z" fill="#333333"/>
<path d="M7.42188 19.9219H9.76562C9.86923 19.9219 9.96858 19.963 10.0418 20.0363C10.1151 20.1095 10.1562 20.2089 10.1562 20.3125V22.6562C10.1562 22.7599 10.1151 22.8592 10.0418 22.9325C9.96858 23.0057 9.86923 23.0469 9.76562 23.0469H7.42188C7.31827 23.0469 7.21892 23.0057 7.14566 22.9325C7.0724 22.8592 7.03125 22.7599 7.03125 22.6562V20.3125C7.03125 20.2089 7.0724 20.1095 7.14566 20.0363C7.21892 19.963 7.31827 19.9219 7.42188 19.9219ZM7.8125 22.2656H9.375V20.7031H7.8125V22.2656Z" fill="#333333"/>
<path d="M11.3281 12.5H13.6719C13.7755 12.5 13.8748 12.5412 13.9481 12.6144C14.0213 12.6877 14.0625 12.787 14.0625 12.8906V15.2344C14.0625 15.338 14.0213 15.4373 13.9481 15.5106C13.8748 15.5838 13.7755 15.625 13.6719 15.625H11.3281C11.2245 15.625 11.1252 15.5838 11.0519 15.5106C10.9787 15.4373 10.9375 15.338 10.9375 15.2344V12.8906C10.9375 12.787 10.9787 12.6877 11.0519 12.6144C11.1252 12.5412 11.2245 12.5 11.3281 12.5ZM11.7188 14.8438H13.2812V13.2812H11.7188V14.8438Z" fill="#333333"/>
<path d="M15.2344 12.5H17.5781C17.6817 12.5 17.7811 12.5412 17.8543 12.6144C17.9276 12.6877 17.9688 12.787 17.9688 12.8906V15.2344C17.9688 15.338 17.9276 15.4373 17.8543 15.5106C17.7811 15.5838 17.6817 15.625 17.5781 15.625H15.2344C15.1308 15.625 15.0314 15.5838 14.9582 15.5106C14.8849 15.4373 14.8438 15.338 14.8438 15.2344V12.8906C14.8438 12.787 14.8849 12.6877 14.9582 12.6144C15.0314 12.5412 15.1308 12.5 15.2344 12.5ZM15.625 14.8438H17.1875V13.2812H15.625V14.8438Z" fill="#333333"/>
<path d="M7.42188 12.5H9.76562C9.86923 12.5 9.96858 12.5412 10.0418 12.6144C10.1151 12.6877 10.1562 12.787 10.1562 12.8906V15.2344C10.1562 15.338 10.1151 15.4373 10.0418 15.5106C9.96858 15.5838 9.86923 15.625 9.76562 15.625H7.42188C7.31827 15.625 7.21892 15.5838 7.14566 15.5106C7.0724 15.4373 7.03125 15.338 7.03125 15.2344V12.8906C7.03125 12.787 7.0724 12.6877 7.14566 12.6144C7.21892 12.5412 7.31827 12.5 7.42188 12.5ZM7.8125 14.8438H9.375V13.2812H7.8125V14.8438Z" fill="#333333"/>
<path d="M11.3281 8.98438H13.6719C13.7755 8.98438 13.8748 9.02553 13.9481 9.09879C14.0213 9.17204 14.0625 9.2714 14.0625 9.375V11.7188C14.0625 11.8224 14.0213 11.9217 13.9481 11.995C13.8748 12.0682 13.7755 12.1094 13.6719 12.1094H11.3281C11.2245 12.1094 11.1252 12.0682 11.0519 11.995C10.9787 11.9217 10.9375 11.8224 10.9375 11.7188V9.375C10.9375 9.2714 10.9787 9.17204 11.0519 9.09879C11.1252 9.02553 11.2245 8.98438 11.3281 8.98438ZM11.7188 11.3281H13.2812V9.76562H11.7188V11.3281Z" fill="#333333"/>
<path d="M15.2344 8.98438H17.5781C17.6817 8.98438 17.7811 9.02553 17.8543 9.09879C17.9276 9.17204 17.9688 9.2714 17.9688 9.375V11.7188C17.9688 11.8224 17.9276 11.9217 17.8543 11.995C17.7811 12.0682 17.6817 12.1094 17.5781 12.1094H15.2344C15.1308 12.1094 15.0314 12.0682 14.9582 11.995C14.8849 11.9217 14.8438 11.8224 14.8438 11.7188V9.375C14.8438 9.2714 14.8849 9.17204 14.9582 9.09879C15.0314 9.02553 15.1308 8.98438 15.2344 8.98438ZM15.625 11.3281H17.1875V9.76562H15.625V11.3281Z" fill="#333333"/>
<path d="M7.42188 8.98438H9.76562C9.86923 8.98438 9.96858 9.02553 10.0418 9.09879C10.1151 9.17204 10.1562 9.2714 10.1562 9.375V11.7188C10.1562 11.8224 10.1151 11.9217 10.0418 11.995C9.96858 12.0682 9.86923 12.1094 9.76562 12.1094H7.42188C7.31827 12.1094 7.21892 12.0682 7.14566 11.995C7.0724 11.9217 7.03125 11.8224 7.03125 11.7188V9.375C7.03125 9.2714 7.0724 9.17204 7.14566 9.09879C7.21892 9.02553 7.31827 8.98438 7.42188 8.98438ZM7.8125 11.3281H9.375V9.76562H7.8125V11.3281Z" fill="#333333"/>
<path d="M11.3281 5.46875H13.6719C13.7755 5.46875 13.8748 5.50991 13.9481 5.58316C14.0213 5.65642 14.0625 5.75577 14.0625 5.85938V8.20312C14.0625 8.30673 14.0213 8.40608 13.9481 8.47934C13.8748 8.5526 13.7755 8.59375 13.6719 8.59375H11.3281C11.2245 8.59375 11.1252 8.5526 11.0519 8.47934C10.9787 8.40608 10.9375 8.30673 10.9375 8.20312V5.85938C10.9375 5.75577 10.9787 5.65642 11.0519 5.58316C11.1252 5.50991 11.2245 5.46875 11.3281 5.46875ZM11.7188 7.8125H13.2812V6.25H11.7188V7.8125Z" fill="#333333"/>
<path d="M15.2344 5.46875H17.5781C17.6817 5.46875 17.7811 5.50991 17.8543 5.58316C17.9276 5.65642 17.9688 5.75577 17.9688 5.85938V8.20312C17.9688 8.30673 17.9276 8.40608 17.8543 8.47934C17.7811 8.5526 17.6817 8.59375 17.5781 8.59375H15.2344C15.1308 8.59375 15.0314 8.5526 14.9582 8.47934C14.8849 8.40608 14.8438 8.30673 14.8438 8.20312V5.85938C14.8438 5.75577 14.8849 5.65642 14.9582 5.58316C15.0314 5.50991 15.1308 5.46875 15.2344 5.46875ZM15.625 7.8125H17.1875V6.25H15.625V7.8125Z" fill="#333333"/>
<path d="M7.42188 5.46875H9.76562C9.86923 5.46875 9.96858 5.50991 10.0418 5.58316C10.1151 5.65642 10.1562 5.75577 10.1562 5.85938V8.20312C10.1562 8.30673 10.1151 8.40608 10.0418 8.47934C9.96858 8.5526 9.86923 8.59375 9.76562 8.59375H7.42188C7.31827 8.59375 7.21892 8.5526 7.14566 8.47934C7.0724 8.40608 7.03125 8.30673 7.03125 8.20312V5.85938C7.03125 5.75577 7.0724 5.65642 7.14566 5.58316C7.21892 5.50991 7.31827 5.46875 7.42188 5.46875ZM7.8125 7.8125H9.375V6.25H7.8125V7.8125Z" fill="#333333"/>
</svg>
