<svg width="18" height="24" viewBox="0 0 18 24" fill="none" xmlns="http://www.w3.org/2000/svg">
<path d="M15.5754 21.5663L8.99989 23.3368L2.42429 21.5663L0.906921 5.12756H17.093L15.5754 21.5663Z" fill="#2062AF"/>
<path d="M8.99984 6.45911V21.9247L9.01471 21.9288L14.336 20.4959L15.5642 6.45911H8.99984Z" fill="#3C9CD7"/>
<path d="M5.26801 2.7124V1.73397H6.69554V0.66333H4.19737V3.68938H6.69554V2.7124H5.26801ZM9.26351 1.73397H10.2615V0.66333H7.76314V1.73397C8.09739 2.06822 8.27171 2.2282 8.75513 2.71163C8.47253 2.71163 7.76314 2.71264 7.76314 2.71259V3.68938H10.2615V2.7124L9.26351 1.73397ZM12.8046 1.73397H13.8025V0.66333H11.304V1.73397C11.6383 2.06822 11.8127 2.2282 12.2961 2.71163C12.0136 2.71163 11.304 2.71264 11.304 2.71259V3.68938H13.8026V2.7124L12.8046 1.73397Z" fill="black"/>
<path d="M8.994 10.5694L4.28769 12.5295L4.44377 14.4701L8.994 12.5246L13.8343 10.4551L14.0349 8.46997L8.994 10.5694Z" fill="white"/>
<path d="M4.28765 12.5294L4.44372 14.47L8.99395 12.5245V10.5694L4.28765 12.5294Z" fill="url(#paint0_linear)"/>
<path d="M14.0349 8.46997L8.994 10.5694V12.5245L13.8343 10.4551L14.0349 8.46997Z" fill="url(#paint1_linear)"/>
<path d="M4.29489 12.5295L4.45101 14.4701L11.4327 14.4923L11.2766 17.0798L8.97918 17.7265L6.77071 17.1689L6.63689 15.5629H4.58483L4.85251 18.6634L9.00148 19.8901L13.128 18.6856L13.6633 12.5295H4.29489Z" fill="url(#paint2_linear)"/>
<path opacity="0.05" d="M8.994 12.5295H4.28769L4.44377 14.4701L8.994 14.4846V12.5295ZM8.994 17.7204L8.9717 17.7266L6.76351 17.169L6.6297 15.563H4.57768L4.84532 18.6634L8.994 19.8902V17.7204Z" fill="black"/>
<path d="M3.86384 8.46997H14.0349L13.8343 10.4551H4.10917L3.86384 8.46997Z" fill="url(#paint3_linear)"/>
<path opacity="0.05" d="M8.994 8.46997H3.86384L4.10917 10.4551H8.994V8.46997Z" fill="black"/>
<defs>
<linearGradient id="paint0_linear" x1="6.6408" y1="14.4701" x2="6.6408" y2="10.5694" gradientUnits="userSpaceOnUse">
<stop offset="0.387" stop-color="#D1D3D4" stop-opacity="0"/>
<stop offset="1" stop-color="#D1D3D4"/>
</linearGradient>
<linearGradient id="paint1_linear" x1="11.5144" y1="12.5246" x2="11.5144" y2="8.47002" gradientUnits="userSpaceOnUse">
<stop offset="0.387" stop-color="#D1D3D4" stop-opacity="0"/>
<stop offset="1" stop-color="#D1D3D4"/>
</linearGradient>
<linearGradient id="paint2_linear" x1="4.29489" y1="16.2099" x2="13.6633" y2="16.2099" gradientUnits="userSpaceOnUse">
<stop stop-color="#E8E7E5"/>
<stop offset="1" stop-color="white"/>
</linearGradient>
<linearGradient id="paint3_linear" x1="3.86384" y1="9.46255" x2="14.0349" y2="9.46255" gradientUnits="userSpaceOnUse">
<stop stop-color="#E8E7E5"/>
<stop offset="1" stop-color="white"/>
</linearGradient>
</defs>
</svg>
