<svg width="15" height="22" viewBox="0 0 15 22" fill="none" xmlns="http://www.w3.org/2000/svg">
<path d="M1.36507 20.232L0 4.32404H15L13.6334 20.2295L7.4908 21.9989L1.36507 20.232Z" fill="#E44D26"/>
<path d="M7.5 20.6465L12.4635 19.2167L13.6314 5.62482H7.5V20.6465Z" fill="#F16529"/>
<path d="M7.5 11.5248H5.01518L4.84354 9.52695H7.5V7.57587H2.79123L2.83623 8.0993L3.29775 13.4759H7.5V11.5248ZM7.5 16.5919L7.49175 16.5942L5.40041 16.0075L5.26671 14.4515H3.38168L3.6448 17.5149L7.49141 18.6244L7.5 18.6219V16.5919Z" fill="#EBEBEB"/>
<path d="M1.39561 0.000976562H2.34988V0.980551H3.22281V0.000976562H4.17712V2.9674H3.22281V1.97408H2.34988V2.9674H1.39568L1.39561 0.000976562ZM5.43211 0.984731H4.59204V0.000976562H7.22703V0.984731H6.38655V2.9674H5.43214V0.984731H5.43211ZM7.64515 0.000976562H8.64027L9.25237 1.04332L9.86389 0.000976562H10.8593V2.9674H9.90883V1.49705L9.25227 2.55178H9.23587L8.57887 1.49705V2.9674H7.64512V0.000976562H7.64515ZM11.3342 0.000976562H12.2887V1.9869H13.6308V2.9674H11.3342V0.000976562Z" fill="black"/>
<path d="M7.49352 11.5248V13.4759H9.80591L9.5879 16.0063L7.49352 16.5935V18.6233L11.3432 17.5149L11.3714 17.1852L11.8127 12.0488L11.8585 11.5248H11.3525H7.49352ZM7.49352 7.57587V9.52694H12.0294L12.067 9.08837L12.1526 8.0993L12.1975 7.57587H7.49352Z" fill="white"/>
</svg>
