<svg width="32" height="32" viewBox="0 0 32 32" fill="none" xmlns="http://www.w3.org/2000/svg">
<path d="M28.7999 11.7967V23.1999C28.7999 24.2608 28.3785 25.2782 27.6284 26.0283C26.8782 26.7785 25.8608 27.1999 24.7999 27.1999H7.19995C6.13909 27.1999 5.12167 26.7785 4.37152 26.0283C3.62138 25.2782 3.19995 24.2608 3.19995 23.1999V11.7967L15.5936 19.0895C15.7167 19.1621 15.857 19.2004 16 19.2004C16.1429 19.2004 16.2832 19.1621 16.4064 19.0895L28.7999 11.7967ZM24.7999 6.3999C25.7842 6.39975 26.7339 6.76247 27.4675 7.41869C28.201 8.0749 28.6669 8.97853 28.776 9.9567L16 17.4719L3.22395 9.9567C3.333 8.97853 3.79887 8.0749 4.53242 7.41869C5.26598 6.76247 6.21572 6.39975 7.19995 6.3999H24.7999Z" fill="#00C4AE"/>
</svg>
