<svg width="29" height="15" viewBox="0 0 29 15" fill="none" xmlns="http://www.w3.org/2000/svg">
<path d="M14.5 14.9125C22.5081 14.9125 29 11.5743 29 7.45627C29 3.33828 22.5081 0 14.5 0C6.49187 0 0 3.33828 0 7.45627C0 11.5743 6.49187 14.9125 14.5 14.9125Z" fill="#8993BE"/>
<path fill-rule="evenodd" clip-rule="evenodd" d="M4.0719 11.8712L5.66101 3.92431H9.33551C10.9245 4.02246 11.7191 4.80725 11.7191 6.18089C11.7191 8.53549 9.83214 9.90902 8.14368 9.81087H6.35622L5.95894 11.8712H4.0719ZM6.75338 8.33932L7.25001 5.39598H8.54107C9.23628 5.39598 9.73279 5.69029 9.73279 6.27892C9.63356 7.94687 8.839 8.24118 7.94521 8.33932H6.75349H6.75338ZM11.3499 9.81087L12.9389 1.86414H14.8259L14.4286 3.92431H16.2162C17.8053 4.02246 18.4012 4.80725 18.2026 5.78843L17.5074 9.81087H15.5211L16.2163 6.18089C16.3156 5.69029 16.3156 5.39598 15.6205 5.39598H14.1307L13.2369 9.81087H11.3499ZM17.3802 11.8712L18.9692 3.92431H22.6438C24.2329 4.02246 25.0275 4.80725 25.0275 6.18089C25.0275 8.53549 23.1404 9.90902 21.4521 9.81087H19.6644L19.2671 11.8712H17.3802ZM20.0615 8.33932L20.5582 5.39598H21.8494C22.5446 5.39598 23.0411 5.69029 23.0411 6.27892C22.9418 7.94687 22.1473 8.24118 21.2535 8.33932H20.0617H20.0615Z" fill="#232531"/>
</svg>
