<svg width="216" height="135" viewBox="0 0 216 135" fill="none" xmlns="http://www.w3.org/2000/svg">
<rect y="25" width="216" height="110" fill="url(#paint0_linear)" fill-opacity="0.4"/>
<g filter="url(#filter0_d)">
<path d="M203 13.5011V5.74653C203 4.76847 202.232 4 201.253 4H13.7465C12.7685 4 12 4.76847 12 5.74653V13.5011H203Z" fill="#475356"/>
<path d="M203 22.8974V121.89C203 122.869 202.232 123.637 201.253 123.637H13.7465C12.7685 123.637 12 122.869 12 121.89V22.8974C12 21.9194 12.7685 21.1509 13.7465 21.1509H201.253C202.197 21.1509 203 21.9543 203 22.8974Z" fill="white"/>
<path d="M203 13.5011H12V27.613H203V13.5011Z" fill="#EAEAEA"/>
<g opacity="0.3">
<path opacity="0.3" d="M23.5969 22.3036C23.7367 22.1639 25.1339 20.6968 25.1339 20.6968C25.2037 20.627 25.2387 20.5222 25.2387 20.4174C25.2387 20.3126 25.2037 20.2078 25.1339 20.1379C25.1339 20.1379 23.7367 18.6708 23.5969 18.5311C23.4572 18.3914 23.2127 18.3914 23.0381 18.5311C22.8983 18.6708 22.8634 18.8804 23.0381 19.0551L24.2956 20.3824L23.0381 21.7098C22.8634 21.8845 22.8983 22.094 23.0381 22.2338C23.2127 22.4433 23.4572 22.4433 23.5969 22.3036Z" fill="#000101"/>
</g>
<g opacity="0.3">
<path opacity="0.3" d="M17.0999 18.6358C16.9601 18.7756 15.5629 20.2426 15.5629 20.2426C15.4931 20.3125 15.4581 20.4173 15.4581 20.5221C15.4581 20.6269 15.4931 20.7317 15.5629 20.8015C15.5629 20.8015 16.9601 22.2686 17.0999 22.4083C17.2396 22.548 17.4841 22.548 17.6588 22.4083C17.7985 22.2686 17.8334 22.059 17.6588 21.8844L16.4013 20.557L17.6588 19.2296C17.8334 19.055 17.7985 18.8454 17.6588 18.7057C17.519 18.4961 17.2396 18.4961 17.0999 18.6358Z" fill="#000101"/>
</g>
<path d="M41.5163 13.5011C44.1011 13.5011 43.9963 6.89923 46.1271 6.89923H70.6483C73.2332 6.89923 73.1284 13.5011 75.2591 13.5011H41.5163Z" fill="#BAC6D0"/>
<path d="M70.7182 10.6368L70.299 10.1827L70.7182 9.72861C70.7881 9.65875 70.7881 9.55396 70.7182 9.4841C70.6483 9.41424 70.5435 9.41424 70.4737 9.4841L70.0894 9.93819L69.7052 9.4841C69.6353 9.41424 69.5306 9.41424 69.4607 9.4841C69.3908 9.55396 69.3908 9.65875 69.4607 9.72861L69.8799 10.1827L69.4607 10.6368C69.3908 10.7067 69.3908 10.8115 69.4607 10.8813C69.5306 10.9512 69.6353 10.9512 69.7052 10.8813L70.0894 10.4272L70.4737 10.8813C70.5435 10.9512 70.6483 10.9512 70.7182 10.8813C70.7881 10.8115 70.7881 10.7067 70.7182 10.6368Z" fill="#465568"/>
<path d="M12.3493 13.571C14.9342 13.571 14.8294 6.96912 16.9601 6.96912H41.4813C44.0662 6.96912 43.9614 13.571 46.0922 13.571H12.3493Z" fill="#EAEAEA"/>
<path d="M41.4115 10.9512L40.9923 10.4971L41.4115 10.043C41.4813 9.97314 41.4813 9.86835 41.4115 9.79849C41.3416 9.72863 41.2368 9.72863 41.167 9.79849L40.7827 10.2526L40.3985 9.79849C40.3286 9.72863 40.2238 9.72863 40.154 9.79849C40.0841 9.86835 40.0841 9.97314 40.154 10.043L40.5732 10.4971L40.154 10.9512C40.0841 11.0211 40.0841 11.1258 40.154 11.1957C40.2238 11.2656 40.3286 11.2656 40.3985 11.1957L40.7827 10.7416L41.167 11.1957C41.2368 11.2656 41.3416 11.2656 41.4115 11.1957C41.4813 11.1608 41.4813 11.0211 41.4115 10.9512Z" fill="#465568"/>
<g opacity="0.3">
<g opacity="0.3">
<g opacity="0.3">
<path opacity="0.3" d="M32.2597 18.4263C33.2727 18.4263 34.0761 19.2297 34.111 20.2427H34.6699L33.8316 21.1858L32.9932 20.2427H33.6569C33.622 19.5092 33.0282 18.8804 32.2597 18.8804C31.4912 18.8804 30.8625 19.5092 30.8625 20.2776C30.8625 21.0461 31.4912 21.6749 32.2597 21.6749C32.5741 21.6749 32.8535 21.5701 33.098 21.3954L33.4124 21.7447C33.098 21.9892 32.7138 22.129 32.2597 22.129C31.2467 22.129 30.4084 21.2906 30.4084 20.2776C30.4084 19.2647 31.2467 18.4263 32.2597 18.4263Z" fill="#000101"/>
</g>
</g>
</g>
<path d="M186.653 8.68066C186.653 9.7635 185.779 10.6368 184.696 10.6368C183.614 10.6368 182.74 9.7635 182.74 8.68066C182.74 7.59781 183.614 6.72455 184.696 6.72455C185.744 6.72455 186.653 7.59781 186.653 8.68066Z" fill="#70B44A"/>
<path d="M193.289 8.68066C193.289 9.7635 192.416 10.6368 191.333 10.6368C190.25 10.6368 189.377 9.7635 189.377 8.68066C189.377 7.59781 190.25 6.72455 191.333 6.72455C192.381 6.72455 193.289 7.59781 193.289 8.68066Z" fill="#DDAA54"/>
<path d="M199.961 8.68066C199.961 9.7635 199.088 10.6368 198.005 10.6368C196.922 10.6368 196.049 9.7635 196.049 8.68066C196.049 7.59781 196.922 6.72455 198.005 6.72455C199.053 6.72455 199.961 7.59781 199.961 8.68066Z" fill="#D6655D"/>
<path d="M160.315 84.0957C160.315 85.0039 159.581 85.7374 158.673 85.7374H53.4974C52.5893 85.7374 51.8557 85.0039 51.8557 84.0957V78.0527C51.8557 77.1445 52.5893 76.4109 53.4974 76.4109H158.673C159.581 76.4109 160.315 77.1445 160.315 78.0527V84.0957Z" fill="#E0E0E0"/>
<g opacity="0.9">
<g opacity="0.9">
<g opacity="0.9">
<g opacity="0.9">
<path opacity="0.9" d="M119.796 57.0595C120.075 56.9547 120.18 56.8848 120.18 56.6753C120.18 56.1164 119.551 55.4876 118.817 55.4876C118.259 55.4876 117.246 55.9068 117.246 57.4088C117.246 57.6533 117.281 57.8978 117.281 58.1423L119.796 57.0595ZM121.088 61.1813C120.948 61.2512 120.774 61.356 120.634 61.4258C120.18 61.6354 119.726 61.7053 119.307 61.7053C118.852 61.7053 118.189 61.6703 117.455 61.1813C116.477 60.4827 116.058 59.2951 116.058 58.2821C116.058 56.1513 117.805 55.1034 119.202 55.1034C119.691 55.1034 120.215 55.2431 120.634 55.4876C121.332 55.9417 121.507 56.5355 121.612 56.8499L118.363 58.1773L117.315 58.2471C117.665 59.9937 118.852 61.0066 120.145 61.0066C120.843 61.0066 121.367 60.7621 121.822 60.5176L121.088 61.1813Z" fill="#9F9F9F"/>
</g>
<g opacity="0.9">
<path opacity="0.9" d="M115.709 61.4608H113.264C113.578 61.0416 113.648 61.0067 113.648 60.7272V58.4917C113.648 57.4088 113.648 55.8719 113.718 54.4397C113.718 53.7411 113.787 52.8679 113.787 52.2042H112.705L113.753 51.7151H115.709C115.29 51.9597 115.15 52.0295 115.08 52.5185C114.975 53.5665 114.94 55.2781 114.94 57.2342V60.4128C114.94 60.9368 115.045 61.0416 115.499 61.0765C115.744 61.1115 115.953 61.1115 116.198 61.1464L115.709 61.4608Z" fill="#9F9F9F"/>
</g>
<g opacity="0.9">
<path opacity="0.9" d="M110.609 59.2252C110.923 58.9108 110.958 58.4567 110.958 58.2122C110.958 57.2342 110.364 55.6623 109.212 55.6623C108.862 55.6623 108.478 55.8369 108.234 56.1164C107.989 56.3958 107.919 56.7801 107.919 57.1294C107.919 58.0376 108.443 59.5745 109.631 59.5745C110.015 59.6094 110.399 59.4348 110.609 59.2252ZM110.19 61.845C110.085 61.845 110.015 61.845 109.875 61.845C109.736 61.845 109.002 61.8799 108.408 62.0546C108.094 62.1594 107.221 62.5087 107.221 63.4867C107.221 64.4648 108.164 65.1634 109.666 65.1634C110.993 65.1634 111.692 64.5346 111.692 63.6614C111.727 62.9628 111.273 62.5785 110.19 61.845ZM111.203 55.7321C111.517 56.0116 112.181 56.5355 112.181 57.5835C112.181 58.5964 111.587 59.0855 111.028 59.5396C110.853 59.7142 110.644 59.9238 110.644 60.2032C110.644 60.5176 110.853 60.6574 110.993 60.7971L111.482 61.1813C112.076 61.7053 112.635 62.1594 112.635 63.1025C112.635 64.3949 111.377 65.7223 109.002 65.7223C107.011 65.7223 106.033 64.7791 106.033 63.7312C106.033 63.2422 106.277 62.5436 107.081 62.0546C107.919 61.5306 109.107 61.4607 109.701 61.4258C109.491 61.1813 109.281 60.9019 109.281 60.4827C109.281 60.2382 109.351 60.0985 109.421 59.9587C109.281 59.9587 109.107 59.9937 108.967 59.9937C107.5 59.9937 106.662 58.9108 106.662 57.828C106.662 57.1992 106.941 56.5006 107.535 55.9767C108.338 55.313 109.247 55.2082 110.015 55.2082H112.844L111.971 55.6972H111.203" fill="#9F9F9F"/>
</g>
<g opacity="0.9">
<path opacity="0.9" d="M104.356 60.5176C104.671 60.0635 104.775 59.5395 104.775 58.9807C104.775 57.7581 104.182 55.4527 102.47 55.4527C102.016 55.4527 101.562 55.6273 101.213 55.9068C100.689 56.3958 100.584 56.9896 100.584 57.5834C100.584 58.9457 101.247 61.2162 102.924 61.2162C103.483 61.2511 104.042 60.9717 104.356 60.5176ZM102.645 61.6354C100.444 61.6354 99.2914 59.9238 99.2914 58.3868C99.2914 56.5704 100.758 55.0335 102.854 55.0335C104.88 55.0335 106.138 56.6054 106.138 58.282C106.138 59.9238 104.88 61.6354 102.645 61.6354Z" fill="#9F9F9F"/>
</g>
<g opacity="0.9">
<path opacity="0.9" d="M97.0209 60.5176C97.3352 60.0635 97.44 59.5395 97.44 58.9807C97.44 57.7581 96.8462 55.4527 95.1346 55.4527C94.6805 55.4527 94.2264 55.6273 93.8771 55.9068C93.3532 56.3958 93.2484 56.9896 93.2484 57.5834C93.2484 58.9457 93.9121 61.2162 95.5887 61.2162C96.1476 61.2511 96.7065 60.9717 97.0209 60.5176ZM95.2743 61.6354C93.0737 61.6354 91.921 59.9238 91.921 58.3868C91.921 56.5704 93.3881 55.0335 95.4839 55.0335C97.5099 55.0335 98.7674 56.6054 98.7674 58.282C98.8023 59.9238 97.5448 61.6354 95.2743 61.6354Z" fill="#9F9F9F"/>
</g>
<g opacity="0.9">
<path opacity="0.9" d="M91.0478 61.1813L89.1964 61.6005C88.4629 61.7053 87.7643 61.8101 87.0657 61.8101C83.5028 61.8101 82.1405 59.1903 82.1405 57.1294C82.1405 54.6144 84.0617 52.274 87.38 52.274C88.0787 52.274 88.7423 52.3788 89.3711 52.5535C90.3491 52.8329 90.8032 53.1473 91.0827 53.3569L89.9998 54.3699L89.5457 54.4747L89.8601 53.9507C89.406 53.5315 88.6026 52.7281 87.1006 52.7281C85.0397 52.7281 83.5028 54.2651 83.5028 56.5356C83.5028 58.9807 85.2493 61.2512 88.0787 61.2512C88.917 61.2512 89.3362 61.0765 89.7204 60.9368V58.841L87.7643 58.9458L88.8122 58.3869H91.5717L91.2224 58.7013C91.1176 58.7711 91.1176 58.8061 91.0827 58.9108C91.0827 59.0156 91.0478 59.3999 91.0478 59.5396V61.1813Z" fill="#9F9F9F"/>
</g>
</g>
</g>
</g>
<path d="M195.35 20.5921H191.263C191.089 20.5921 190.914 20.7667 190.914 21.0112C190.914 21.2208 191.054 21.4304 191.263 21.4304H195.35C195.525 21.4304 195.7 21.2557 195.7 21.0112C195.665 20.7667 195.525 20.5921 195.35 20.5921ZM191.228 19.7887H195.315C195.49 19.7887 195.665 19.614 195.665 19.3695C195.665 19.1599 195.525 18.9503 195.315 18.9503H191.228C191.054 18.9503 190.879 19.125 190.879 19.3695C190.914 19.614 191.054 19.7887 191.228 19.7887ZM195.35 22.1989H191.263C191.089 22.1989 190.914 22.3735 190.914 22.618C190.914 22.8276 191.054 23.0372 191.263 23.0372H195.35C195.525 23.0372 195.7 22.8625 195.7 22.618C195.665 22.3735 195.525 22.1989 195.35 22.1989Z" fill="#9F9F9F"/>
<path d="M184.417 23.8405C184.417 24.3994 183.963 24.8885 183.369 24.8885L39.5951 24.5392C39.0362 24.5392 38.5472 24.0851 38.5472 23.4912V17.7626C38.5472 17.2037 39.0013 16.7147 39.5951 16.7147L183.369 17.064C183.928 17.064 184.417 17.5181 184.417 18.1119V23.8405Z" fill="white"/>
<path d="M43.2628 18.3914H41.167C41.132 18.3914 41.132 18.4263 41.132 18.4612V22.6529C41.132 22.6878 41.167 22.7227 41.167 22.7227H44.3457C44.3806 22.7227 44.3806 22.6878 44.3806 22.6529V19.579L43.2628 18.3914Z" fill="#DCDBDB"/>
<path d="M43.2628 18.3914L44.4155 19.579H43.3676C43.3676 19.579 43.2977 19.579 43.2977 19.4742C43.2628 19.3694 43.2628 18.3914 43.2628 18.3914Z" fill="#BABABA"/>
<path d="M19.6149 10.043C19.5799 9.93819 19.5799 9.90326 19.5101 9.8334C19.4751 9.79847 19.3703 9.76354 19.2655 9.76354C19.021 9.76354 18.8813 9.97312 18.8813 10.2875C18.8813 10.6019 19.056 10.8115 19.3005 10.8115C19.4402 10.8115 19.545 10.7416 19.6149 10.6368C19.6498 10.6019 19.6498 10.532 19.6847 10.4272H19.8594C19.8244 10.7765 19.6498 10.9162 19.3354 10.9162C19.1608 10.9162 19.056 10.8813 18.9512 10.7765C18.8464 10.6368 18.7765 10.4621 18.7765 10.2526C18.7765 10.043 18.8464 9.86833 18.9512 9.72861C19.056 9.62382 19.1957 9.55396 19.3703 9.55396C19.6498 9.55396 19.8244 9.69368 19.8594 9.97312H19.6149V10.043Z" fill="#7C797A"/>
<path d="M20.4532 10.2526C20.4532 10.1478 20.3833 10.1129 20.2785 10.1129C20.1737 10.1129 20.0689 10.1827 20.0689 10.2526C20.0689 10.3225 20.1039 10.3574 20.2436 10.3923L20.3833 10.4273C20.558 10.4622 20.6278 10.5321 20.6278 10.6718C20.6278 10.8464 20.4881 10.9512 20.2436 10.9512C19.9991 10.9512 19.8943 10.8464 19.8943 10.6368H20.034C20.034 10.7067 20.0689 10.7416 20.0689 10.7416C20.1039 10.7766 20.1737 10.8115 20.2436 10.8115C20.3833 10.8115 20.4532 10.7416 20.4532 10.6718C20.4532 10.6019 20.4182 10.567 20.3135 10.5321L20.1737 10.4971C19.9641 10.4622 19.8943 10.3923 19.8943 10.2177C19.8943 10.043 20.034 9.93823 20.2436 9.93823C20.4532 9.93823 20.558 10.043 20.5929 10.2177H20.4532V10.2526Z" fill="#7C797A"/>
<path d="M21.3613 10.2526C21.3613 10.1478 21.2915 10.1129 21.1867 10.1129C21.0819 10.1129 20.9771 10.1827 20.9771 10.2526C20.9771 10.3225 21.012 10.3574 21.1518 10.3923L21.2915 10.4273C21.4661 10.4622 21.536 10.5321 21.536 10.6718C21.536 10.8464 21.3963 10.9512 21.1518 10.9512C20.9073 10.9512 20.8025 10.8464 20.8025 10.6368H20.9422C20.9422 10.7067 20.9771 10.7416 20.9771 10.7416C21.012 10.7766 21.0819 10.8115 21.1518 10.8115C21.2915 10.8115 21.3613 10.7416 21.3613 10.6718C21.3613 10.6019 21.3264 10.567 21.2216 10.5321L21.0819 10.4971C20.8723 10.4622 20.8025 10.3923 20.8025 10.2177C20.8025 10.043 20.9422 9.93823 21.1518 9.93823C21.3613 9.93823 21.4661 10.043 21.5011 10.2177H21.3613V10.2526Z" fill="#7C797A"/>
<path d="M22.4442 10.5321L22.3045 10.9163H22.1299L22.5839 9.65881H22.7935L23.2476 10.9163H23.073L22.9333 10.5321H22.4442ZM22.6887 9.83347L22.4792 10.3924H22.8983L22.6887 9.83347Z" fill="#7C797A"/>
<path d="M23.9462 10.9162V10.7765C23.8763 10.8813 23.7716 10.9512 23.6318 10.9512C23.4572 10.9512 23.3524 10.8464 23.3524 10.7067V10.0081H23.4921V10.6717C23.4921 10.7765 23.562 10.8464 23.6668 10.8464C23.8065 10.8464 23.9113 10.7067 23.9113 10.532V10.0081H24.051V10.9162H23.9462Z" fill="#7C797A"/>
<path d="M24.6448 10.1129H24.5051V10.7416C24.5051 10.8115 24.54 10.8115 24.575 10.8115C24.6099 10.8115 24.6099 10.8115 24.6448 10.8115V10.9512C24.6099 10.9512 24.575 10.9512 24.54 10.9512C24.4352 10.9512 24.3654 10.9163 24.3654 10.8115V10.1129H24.2256V10.0081H24.3654V9.76355H24.5051V10.0081H24.6448V10.1129Z" fill="#7C797A"/>
<path d="M24.9592 9.65881V10.1478C25.0291 10.043 25.1339 10.0081 25.2386 10.0081C25.4133 10.0081 25.5181 10.1129 25.5181 10.2526V10.9512H25.3784V10.2876C25.3784 10.2177 25.3434 10.1828 25.3085 10.1478C25.2736 10.1129 25.2386 10.1129 25.1688 10.1129C25.0291 10.1129 24.9243 10.2526 24.9243 10.4273V10.9163H24.7845V9.65881H24.9592Z" fill="#7C797A"/>
<path d="M26.5311 10.4622C26.5311 10.7766 26.3914 10.9513 26.1119 10.9513C25.8674 10.9513 25.6927 10.7766 25.6927 10.4622C25.6927 10.1479 25.8325 9.97321 26.1119 9.97321C26.3914 9.97321 26.5311 10.1479 26.5311 10.4622ZM25.8674 10.4622C25.8674 10.6718 25.9722 10.8115 26.1468 10.8115C26.3215 10.8115 26.4263 10.6718 26.4263 10.4622C26.4263 10.2177 26.3215 10.1129 26.1468 10.1129C25.9722 10.1129 25.8674 10.2526 25.8674 10.4622Z" fill="#7C797A"/>
<path d="M26.8804 10.0081V10.1828C26.9502 10.0431 27.0201 9.97321 27.1249 9.97321C27.1598 9.97321 27.1598 9.97321 27.1947 9.97321V10.1129C26.9852 10.1129 26.9153 10.2177 26.9153 10.4273V10.9163H26.7756V10.0081H26.8804Z" fill="#7C797A"/>
<path d="M30.7577 10.9163L30.4782 9.8684L30.1988 10.9163H30.0241L29.7097 9.65881H29.8844L30.1289 10.7067L30.4084 9.65881H30.583L30.8625 10.7067L31.107 9.65881H31.2816L30.9672 10.9163H30.7577Z" fill="#7C797A"/>
<path d="M31.4563 10.4972C31.4563 10.602 31.4563 10.6369 31.4912 10.7067C31.5262 10.7766 31.631 10.8115 31.7008 10.8115C31.8056 10.8115 31.9104 10.7417 31.9453 10.6369H32.085C32.0501 10.8465 31.9104 10.9513 31.7008 10.9513C31.4563 10.9513 31.2816 10.7766 31.2816 10.4622C31.2816 10.1479 31.4563 9.97321 31.7008 9.97321C31.8755 9.97321 32.0152 10.078 32.085 10.2177C32.12 10.2876 32.12 10.3574 32.12 10.4972H31.4563ZM31.9803 10.3924C31.9803 10.2177 31.8755 10.1129 31.7357 10.1129C31.596 10.1129 31.4912 10.2177 31.4563 10.3924H31.9803Z" fill="#7C797A"/>
<path d="M32.4343 9.65881V10.1478C32.5042 10.043 32.609 10.0081 32.7138 10.0081C32.9583 10.0081 33.098 10.1828 33.098 10.4971C33.098 10.8115 32.9233 10.9862 32.7138 10.9862C32.574 10.9862 32.5042 10.9512 32.4343 10.8115V10.9163H32.2946V9.65881H32.4343ZM32.4343 10.4622C32.4343 10.6718 32.5391 10.8115 32.6788 10.8115C32.8535 10.8115 32.9583 10.6718 32.9583 10.4622C32.9583 10.2526 32.8535 10.1129 32.6788 10.1129C32.5391 10.1129 32.4343 10.2526 32.4343 10.4622Z" fill="#7C797A"/>
<path d="M33.6918 9.65881L33.2727 10.9512H33.1679L33.587 9.65881H33.6918Z" fill="#7C797A"/>
<path d="M34.8445 9.65881V10.567C34.8445 10.8115 34.635 10.9862 34.3555 10.9862C34.0411 10.9862 33.8665 10.8115 33.8665 10.567V9.65881H34.0411V10.567C34.0411 10.6718 34.0761 10.7417 34.1459 10.7766C34.2158 10.8115 34.2857 10.8465 34.3904 10.8465C34.6 10.8465 34.7048 10.7417 34.7048 10.567V9.65881H34.8445Z" fill="#7C797A"/>
<path d="M35.2288 9.83347H35.0891V9.65881H35.2288V9.83347ZM35.2288 10.9163H35.0891V10.0081H35.2288V10.9163Z" fill="#7C797A"/>
<g opacity="0.7">
<path opacity="0.7" d="M49.2709 10.9506H49.0962L48.4325 9.9027V10.9506H48.2928V9.69312H48.4675L49.1311 10.741V9.69312H49.2709V10.9506Z" fill="#475356"/>
<path opacity="0.7" d="M49.6202 10.532C49.6202 10.6368 49.6202 10.6717 49.6551 10.7416C49.69 10.8115 49.7948 10.8464 49.8647 10.8464C49.9695 10.8464 50.0743 10.7765 50.1092 10.6717H50.2489C50.214 10.8813 50.0743 10.9861 49.8647 10.9861C49.6202 10.9861 49.4455 10.8115 49.4455 10.4971C49.4455 10.1827 49.6202 10.0081 49.8647 10.0081C50.0393 10.0081 50.1791 10.1128 50.2489 10.2526C50.2839 10.3224 50.2839 10.3923 50.2839 10.532H49.6202ZM50.1441 10.4272C50.1441 10.2526 50.0393 10.1478 49.8996 10.1478C49.7599 10.1478 49.6551 10.2526 49.6202 10.4272H50.1441Z" fill="#475356"/>
<path opacity="0.7" d="M51.1571 10.9512L50.9824 10.2176L50.8078 10.9512H50.6331L50.3537 10.043H50.5284L50.703 10.7416L50.8777 10.043H51.0523L51.227 10.7416L51.4016 10.043H51.5763L51.2968 10.9512H51.1571Z" fill="#475356"/>
<path opacity="0.7" d="M52.729 10.9512H52.5543V9.83345H52.1352V9.69373H53.1481V9.83345H52.729V10.9512Z" fill="#475356"/>
<path opacity="0.7" d="M53.9515 10.9861C53.9166 10.9861 53.8817 10.9861 53.8468 10.9861C53.742 10.9861 53.707 10.9512 53.707 10.8464C53.6022 10.9512 53.4974 10.9861 53.3927 10.9861C53.218 10.9861 53.0783 10.8813 53.0783 10.7066C53.0783 10.6019 53.1481 10.4971 53.2529 10.4621C53.3228 10.4272 53.3577 10.4272 53.5324 10.3923C53.6372 10.3923 53.6721 10.3573 53.6721 10.2875C53.6721 10.1827 53.6022 10.1478 53.4625 10.1478C53.3228 10.1478 53.2529 10.1827 53.2529 10.3224H53.1132C53.1132 10.2176 53.1481 10.1827 53.1831 10.1478C53.2529 10.0779 53.3577 10.043 53.4974 10.043C53.707 10.043 53.8468 10.1478 53.8468 10.2875V10.8114C53.8468 10.8464 53.8817 10.8813 53.9166 10.8813C53.9166 10.8813 53.9166 10.8813 53.9515 10.8813V10.9861ZM53.6721 10.4971C53.6372 10.532 53.6022 10.532 53.4276 10.532C53.2529 10.5669 53.218 10.6019 53.218 10.7066C53.218 10.8114 53.2879 10.8464 53.3927 10.8464C53.4625 10.8464 53.5673 10.8114 53.6022 10.7765C53.6372 10.7416 53.6721 10.7066 53.6721 10.6717V10.4971Z" fill="#475356"/>
<path opacity="0.7" d="M54.1961 9.65881V10.1478C54.2659 10.043 54.3707 10.0081 54.4755 10.0081C54.72 10.0081 54.8597 10.1828 54.8597 10.4971C54.8597 10.8115 54.6851 10.9862 54.4755 10.9862C54.3358 10.9862 54.2659 10.9512 54.1961 10.8115V10.9163H54.0563V9.65881H54.1961ZM54.1961 10.4971C54.1961 10.7067 54.3008 10.8465 54.4406 10.8465C54.6152 10.8465 54.72 10.7067 54.72 10.4971C54.72 10.2876 54.6152 10.1478 54.4406 10.1478C54.3008 10.1478 54.1961 10.2876 54.1961 10.4971Z" fill="#475356"/>
</g>
<path d="M28.3475 10.6717C28.3126 10.7066 28.3126 10.7415 28.3475 10.7415C28.3824 10.7765 28.4173 10.7765 28.4173 10.7415L28.7317 10.4272C28.7667 10.3922 28.7667 10.3573 28.7317 10.3573L28.4173 10.0429C28.3824 10.008 28.3475 10.008 28.3475 10.0429C28.3126 10.0779 28.3126 10.1128 28.3475 10.1128L28.592 10.3922L28.3475 10.6717Z" fill="#7C797A"/>
<path d="M28.7317 10.6717C28.6968 10.7066 28.6968 10.7415 28.7317 10.7415C28.7666 10.7765 28.8016 10.7765 28.8016 10.7415L29.1159 10.4272C29.1509 10.3922 29.1509 10.3573 29.1159 10.3573L28.8016 10.0429C28.7666 10.008 28.7317 10.008 28.7317 10.0429C28.6968 10.0779 28.6968 10.1128 28.7317 10.1128L28.9762 10.3922L28.7317 10.6717Z" fill="#7C797A"/>
</g>
<defs>
<filter id="filter0_d" x="8" y="0" width="199" height="127.637" filterUnits="userSpaceOnUse" color-interpolation-filters="sRGB">
<feFlood flood-opacity="0" result="BackgroundImageFix"/>
<feColorMatrix in="SourceAlpha" type="matrix" values="0 0 0 0 0 0 0 0 0 0 0 0 0 0 0 0 0 0 127 0"/>
<feOffset/>
<feGaussianBlur stdDeviation="2"/>
<feColorMatrix type="matrix" values="0 0 0 0 0 0 0 0 0 0 0 0 0 0 0 0 0 0 0.25 0"/>
<feBlend mode="normal" in2="BackgroundImageFix" result="effect1_dropShadow"/>
<feBlend mode="normal" in="SourceGraphic" in2="effect1_dropShadow" result="shape"/>
</filter>
<linearGradient id="paint0_linear" x1="3.94079e-06" y1="28.9759" x2="90.9325" y2="201.08" gradientUnits="userSpaceOnUse">
<stop stop-color="#E99F9F"/>
<stop offset="1" stop-color="#9BC9DD"/>
</linearGradient>
</defs>
</svg>
