<svg width="27" height="27" viewBox="0 0 27 27" fill="none" xmlns="http://www.w3.org/2000/svg">
<path d="M18.3299 18.48L20.5699 16.24C20.8716 15.9421 21.2533 15.7381 21.6687 15.6529C22.0841 15.5677 22.5152 15.6049 22.9099 15.76L25.6399 16.85C26.0387 17.0119 26.3807 17.2882 26.6227 17.6441C26.8647 18.0001 26.996 18.4197 26.9999 18.85V23.85C26.9976 24.1428 26.936 24.4321 26.819 24.7005C26.7019 24.9688 26.5317 25.2107 26.3187 25.4116C26.1057 25.6125 25.8542 25.7682 25.5795 25.8693C25.3047 25.9704 25.0123 26.0149 24.7199 26C5.58989 24.81 1.72989 8.61004 0.99989 2.41004C0.966003 2.10558 0.996964 1.79739 1.09074 1.50575C1.18451 1.21411 1.33897 0.945633 1.54396 0.717977C1.74894 0.49032 1.99981 0.308646 2.28005 0.184905C2.56029 0.0611637 2.86355 -0.00183916 3.16989 4.0869e-05H7.99989C8.4309 0.00131666 8.85167 0.131508 9.20809 0.37387C9.5645 0.616232 9.84026 0.959681 9.99989 1.36004L11.0899 4.09004C11.2501 4.48311 11.291 4.91468 11.2074 5.33085C11.1238 5.74702 10.9195 6.12934 10.6199 6.43004L8.37989 8.67004C8.37989 8.67004 9.66989 17.4 18.3299 18.48Z" fill="#00C4AE"/>
</svg>
