<svg width="28" height="28" viewBox="0 0 28 28" fill="none" xmlns="http://www.w3.org/2000/svg">
<path d="M10.2666 17.2666C10.2666 17.5242 10.4757 17.7333 10.7333 17.7333H12.6C12.8575 17.7333 13.0666 17.5242 13.0666 17.2666V14.4666C13.0666 14.2091 12.8575 14 12.6 14H10.7333C10.4757 14 10.2667 14.2091 10.2667 14.4666V17.2666H10.2666ZM11.2 14.9334H12.1333V16.8H11.2V14.9334Z" fill="#333333"/>
<path d="M10.7334 12.1334H12.6C12.8576 12.1334 13.0667 11.9243 13.0667 11.6667V8.8667C13.0667 8.60913 12.8576 8.40005 12.6 8.40005H10.7334C10.4758 8.40005 10.2667 8.60913 10.2667 8.8667V11.6667C10.2667 11.9243 10.4757 12.1334 10.7334 12.1334ZM11.2 9.33335H12.1334V11.2H11.2V9.33335Z" fill="#333333"/>
<path d="M7.24037 8.79993L14 4.74414L20.7597 8.79993C20.8348 8.84521 20.9179 8.86665 20.9995 8.86665C21.1582 8.86665 21.3127 8.78593 21.3999 8.6403C21.5329 8.41909 21.4611 8.13258 21.2404 8.00002L14.4667 3.93586V0.933352H16.8V1.8667H15.4C15.1424 1.8667 14.9334 2.07577 14.9334 2.33335C14.9334 2.59093 15.1424 2.8 15.4 2.8H17.2667C17.5242 2.8 17.7333 2.59093 17.7333 2.33335V0.466648C17.7333 0.20907 17.5242 0 17.2667 0H14C13.7424 0 13.5334 0.20907 13.5334 0.466648V3.93586L6.75972 8.00007C6.539 8.13258 6.46714 8.41914 6.60014 8.64035C6.73216 8.86107 7.01959 8.93293 7.24037 8.79993Z" fill="#333333"/>
<path d="M5.1334 17.7334C5.39098 17.7334 5.60005 17.5243 5.60005 17.2667V14.4667C5.60005 14.2091 5.39098 14.0001 5.1334 14.0001H3.2667C3.00912 14.0001 2.80005 14.2091 2.80005 14.4667V15.4C2.80005 15.6576 3.00912 15.8667 3.2667 15.8667C3.52428 15.8667 3.73335 15.6576 3.73335 15.4V14.9334H4.6667V17.2667C4.6667 17.5243 4.87577 17.7334 5.1334 17.7334Z" fill="#333333"/>
<path d="M8.39997 23.8V10.2667C8.39997 10.0091 8.1909 9.8 7.93332 9.8C7.67575 9.8 7.46667 10.0091 7.46667 10.2667V23.8C7.46667 24.0576 7.67575 24.2667 7.93332 24.2667C8.1909 24.2667 8.39997 24.0576 8.39997 23.8Z" fill="#333333"/>
<path d="M6.06662 26.1334H21.9333C22.1909 26.1334 22.3999 25.9243 22.3999 25.6667C22.3999 25.4091 22.1909 25.2001 21.9333 25.2001H17.7333V20.5334H18.1999C18.4575 20.5334 18.6666 20.3243 18.6666 20.0668C18.6666 19.8092 18.4575 19.6001 18.1999 19.6001H9.79997C9.5424 19.6001 9.33333 19.8092 9.33333 20.0668C9.33333 20.3243 9.5424 20.5334 9.79997 20.5334H10.2666V25.2H6.06662C5.80905 25.2 5.59998 25.4091 5.59998 25.6666C5.59998 25.9242 5.80905 26.1334 6.06662 26.1334ZM14.4666 23.3334C14.7242 23.3334 14.9333 23.1243 14.9333 22.8667C14.9333 22.6091 14.7242 22.4001 14.4666 22.4001V20.5334H16.8V25.2H14.4666V23.3334ZM11.2 20.5334H13.5333V22.4C13.2757 22.4 13.0667 22.6091 13.0667 22.8666C13.0667 23.1242 13.2757 23.3333 13.5333 23.3333V25.2H11.2V20.5334Z" fill="#333333"/>
<path d="M24.7333 20.0667H22.8667C22.6091 20.0667 22.4 20.2757 22.4 20.5333V23.3333C22.4 23.5909 22.6091 23.8 22.8667 23.8H24.7333C24.9909 23.8 25.2 23.5909 25.2 23.3333V20.5333C25.2 20.2757 24.9909 20.0667 24.7333 20.0667ZM24.2666 22.8667H23.3333V21H24.2666V22.8667Z" fill="#333333"/>
<path d="M24.7333 14.4666H22.8667C22.6091 14.4666 22.4 14.6757 22.4 14.9333V17.7333C22.4 17.9909 22.6091 18.1999 22.8667 18.1999H24.7333C24.9909 18.1999 25.2 17.9909 25.2 17.7333V14.9333C25.2 14.6757 24.9909 14.4666 24.7333 14.4666ZM24.2666 17.2666H23.3333V15.4H24.2666V17.2666Z" fill="#333333"/>
<path d="M23.8 27.0667H4.20005C3.94247 27.0667 3.7334 27.2757 3.7334 27.5333C3.7334 27.7909 3.94247 28 4.20005 28H23.8C24.0576 28 24.2667 27.7909 24.2667 27.5334C24.2667 27.2758 24.0576 27.0667 23.8 27.0667Z" fill="#333333"/>
<path d="M27.5333 10.2666C27.2757 10.2666 27.0667 10.4757 27.0667 10.7333V11.1999H21.9333C21.6757 11.1999 21.4667 11.409 21.4667 11.6666C21.4667 11.9242 21.6757 12.1332 21.9333 12.1332H27.0667V27.5332C27.0667 27.7908 27.2757 27.9999 27.5333 27.9999C27.7909 27.9999 28 27.7908 28 27.5332V10.7332C28 10.4757 27.7909 10.2666 27.5333 10.2666Z" fill="#333333"/>
<path d="M14.9333 17.2666C14.9333 17.5242 15.1424 17.7333 15.4 17.7333H17.2666C17.5242 17.7333 17.7333 17.5242 17.7333 17.2666V14.4666C17.7333 14.2091 17.5242 14 17.2666 14H15.4C15.1424 14 14.9333 14.2091 14.9333 14.4666V17.2666ZM15.8666 14.9334H16.8V16.8H15.8666V14.9334Z" fill="#333333"/>
<path d="M4.66665 22.8667C4.66665 22.806 4.64007 16.8 2.3333 16.8C0.0265781 16.8 0 22.806 0 22.8667C0 23.9937 0.803141 24.9359 1.86665 25.1529V27.5334C1.86665 27.7909 2.07572 28 2.3333 28C2.59087 28 2.79995 27.7909 2.79995 27.5334V25.1529C3.86351 24.9359 4.66665 23.9937 4.66665 22.8667ZM2.33335 24.2667C1.56149 24.2667 0.933352 23.6385 0.933352 22.8667C0.933352 20.5417 1.55777 17.7333 2.33335 17.7333C3.10893 17.7333 3.73335 20.5417 3.73335 22.8667C3.73335 23.6385 3.10521 24.2667 2.33335 24.2667Z" fill="#333333"/>
<path d="M20.5334 23.8V9.80001C20.5334 9.54243 20.3243 9.33336 20.0667 9.33336C19.8092 9.33336 19.6001 9.54243 19.6001 9.80001V23.8C19.6001 24.0576 19.8092 24.2667 20.0667 24.2667C20.3243 24.2667 20.5334 24.0576 20.5334 23.8Z" fill="#333333"/>
<path d="M15.4 12.1334H17.2666C17.5242 12.1334 17.7333 11.9243 17.7333 11.6667V8.8667C17.7333 8.60913 17.5242 8.40005 17.2666 8.40005H15.4C15.1424 8.40005 14.9333 8.60913 14.9333 8.8667V11.6667C14.9333 11.9243 15.1424 12.1334 15.4 12.1334ZM15.8666 9.33335H16.8V11.2H15.8666V9.33335Z" fill="#333333"/>
<path d="M0.466648 16.3333C0.724227 16.3333 0.933297 16.1243 0.933297 15.8667V12.1333H6.06665C6.32423 12.1333 6.5333 11.9243 6.5333 11.6667C6.5333 11.4091 6.32423 11.2001 6.06665 11.2001H0.933351V10.7334C0.933351 10.4758 0.724281 10.2668 0.466703 10.2668C0.209125 10.2668 0 10.4757 0 10.7333V15.8667C0 16.1243 0.20907 16.3333 0.466648 16.3333Z" fill="#333333"/>
<path d="M24.1904 2.4762V4.38095L25.8209 5.34857L26.0952 4.88572L24.7619 4.09523V2.4762H24.1904Z" fill="#333333"/>
<path d="M24.5695 0.571426C22.6743 0.571426 21.1429 2.10666 21.1429 4H20L21.4838 5.4838L21.5105 5.53903L23.0476 4H21.9048C21.9048 2.52762 23.0991 1.33334 24.5714 1.33334C26.0438 1.33334 27.2381 2.52762 27.2381 4C27.2381 5.47237 26.0438 6.66666 24.5714 6.66666C23.8343 6.66666 23.1695 6.36571 22.6876 5.8838L22.1486 6.42285C22.7676 7.0438 23.6229 7.42857 24.5695 7.42857C26.4648 7.42857 28 5.89334 28 4C28 2.10666 26.4648 0.571426 24.5695 0.571426Z" fill="#333333"/>
</svg>
